<?xml version="1.0" standalone="no"?>
<!DOCTYPE svg PUBLIC "-//W3C//DTD SVG 20010904//EN"
 "http://www.w3.org/TR/2001/REC-SVG-20010904/DTD/svg10.dtd">
<svg version="1.0" xmlns="http://www.w3.org/2000/svg"
 width="2721.000000pt" height="2721.000000pt" viewBox="0 0 2721.000000 2721.000000"
 preserveAspectRatio="xMidYMid meet">
<metadata>
Created by potrace 1.14, written by Peter Selinger 2001-2017
</metadata>
<g transform="translate(0.000000,2721.000000) scale(0.100000,-0.100000)"
fill="#000000" stroke="none">
<path d="M7728 24105 c-1 -1 -68 -6 -148 -9 -80 -4 -163 -8 -185 -10 -22 -3
-76 -7 -120 -11 -44 -3 -96 -8 -115 -10 -19 -2 -62 -6 -95 -10 -33 -3 -76 -8
-95 -11 -19 -3 -48 -7 -65 -9 -160 -20 -324 -46 -450 -71 -11 -2 -36 -7 -55
-10 -19 -3 -78 -15 -130 -26 -52 -11 -113 -24 -136 -29 -69 -13 -365 -89 -433
-109 -34 -11 -73 -22 -85 -24 -25 -5 -188 -56 -271 -86 -33 -11 -71 -23 -84
-26 -13 -3 -35 -11 -50 -18 -14 -7 -38 -16 -54 -20 -76 -18 -662 -261 -694
-288 -7 -6 -13 -8 -13 -5 0 12 -551 -278 -650 -342 -14 -9 -34 -21 -45 -28
-526 -312 -1086 -770 -1495 -1222 -47 -52 -90 -99 -95 -105 -6 -6 -40 -47 -76
-91 -517 -627 -876 -1307 -1084 -2050 -42 -150 -107 -444 -120 -545 -3 -19 -7
-44 -9 -56 -2 -12 -7 -45 -11 -74 -4 -29 -8 -61 -10 -70 -2 -9 -6 -53 -10 -96
-4 -43 -9 -87 -10 -96 -19 -99 -26 -678 -12 -873 14 -188 24 -295 32 -345 2
-14 7 -49 10 -79 4 -30 9 -63 11 -75 2 -11 6 -38 9 -61 3 -22 10 -62 15 -90 6
-27 12 -61 15 -75 18 -95 40 -196 56 -260 11 -41 21 -82 23 -90 37 -155 153
-492 231 -675 214 -502 497 -953 873 -1392 147 -173 479 -507 637 -643 61 -52
112 -97 115 -100 10 -12 299 -239 375 -296 44 -32 84 -62 90 -67 76 -57 375
-257 555 -372 115 -74 534 -315 546 -315 3 0 10 -5 17 -10 32 -27 631 -326
847 -423 80 -35 165 -74 190 -85 25 -12 248 -111 495 -220 248 -110 490 -218
538 -241 49 -23 90 -41 91 -41 3 0 51 -22 306 -142 47 -22 114 -54 150 -70
120 -56 635 -312 683 -340 26 -15 47 -25 47 -22 0 3 12 -3 28 -14 15 -10 47
-29 72 -41 137 -70 436 -243 618 -358 568 -358 944 -708 1104 -1028 29 -56 75
-181 83 -223 17 -85 20 -117 18 -212 -3 -231 -93 -429 -277 -614 -139 -140
-288 -239 -521 -343 -193 -86 -534 -181 -790 -218 -22 -4 -50 -8 -61 -10 -20
-3 -81 -10 -173 -21 -169 -19 -604 -24 -806 -10 -167 11 -217 15 -256 21 -20
3 -56 7 -80 10 -24 2 -62 6 -84 10 -75 11 -330 55 -355 60 -14 3 -36 7 -50 10
-148 30 -385 94 -581 159 -220 72 -395 143 -635 256 -88 42 -140 70 -319 170
-184 102 -502 323 -649 450 -272 233 -526 501 -674 710 -26 36 -49 67 -52 70
-4 3 -18 21 -31 42 l-25 36 -214 -210 c-118 -115 -388 -379 -598 -586 -211
-208 -441 -433 -510 -501 -70 -68 -299 -293 -510 -500 -211 -207 -446 -437
-522 -511 -76 -74 -310 -304 -521 -510 -210 -206 -388 -381 -395 -388 -16 -15
-1 -52 87 -219 118 -224 327 -555 415 -656 11 -13 39 -48 61 -78 159 -215 475
-543 744 -775 57 -49 106 -91 109 -94 3 -3 34 -28 70 -55 36 -28 67 -52 70
-55 24 -24 317 -237 391 -285 9 -5 36 -23 60 -39 220 -145 397 -250 649 -384
47 -25 92 -49 100 -53 45 -25 362 -174 465 -219 412 -179 925 -359 1330 -466
55 -14 107 -28 115 -30 156 -42 652 -151 768 -169 20 -3 73 -12 117 -20 92
-16 107 -18 325 -49 19 -3 53 -8 75 -11 22 -4 60 -8 85 -11 25 -2 79 -8 120
-14 41 -5 107 -12 145 -15 39 -4 84 -8 100 -10 17 -2 71 -6 120 -10 50 -4 110
-8 135 -10 252 -21 1055 -27 1330 -11 215 13 343 22 420 31 19 2 60 7 90 10
30 3 71 8 90 10 19 2 62 7 95 10 33 4 67 8 75 10 8 2 39 7 69 10 30 4 63 8 74
11 10 2 45 6 76 10 31 3 58 8 61 9 3 2 26 6 50 10 25 3 79 12 120 20 41 8 86
17 100 19 262 49 546 116 830 197 171 49 505 155 525 167 6 4 15 7 20 8 16 3
386 145 445 171 30 14 70 31 88 39 17 8 49 22 70 31 20 10 39 18 42 19 51 12
505 245 715 367 757 436 1476 1058 1944 1682 33 44 64 85 69 90 4 6 35 48 68
95 322 454 577 966 754 1510 28 88 40 130 91 315 24 90 96 443 104 515 4 30 8
57 10 60 2 3 6 33 10 67 4 35 9 75 11 90 2 16 6 53 9 83 3 30 7 69 9 85 26
163 27 854 1 1085 -2 19 -6 62 -10 95 -10 101 -16 148 -25 205 -5 30 -11 76
-15 103 -18 144 -104 519 -169 732 -34 113 -117 344 -159 445 -71 173 -83 199
-177 385 -78 155 -169 317 -263 470 -136 220 -422 597 -612 804 -133 146 -348
364 -461 468 -164 149 -288 255 -479 406 -88 69 -168 133 -177 141 -10 9 -20
16 -23 16 -2 0 -39 26 -82 58 -86 64 -221 159 -298 209 -27 17 -54 36 -60 40
-12 10 -172 113 -285 183 -67 42 -343 204 -445 262 -217 123 -615 328 -870
448 -140 67 -369 170 -385 175 -3 1 -27 12 -55 24 -27 13 -63 29 -80 36 -16 7
-61 26 -100 43 -257 110 -675 278 -1385 554 -310 120 -578 225 -595 232 -16 7
-61 26 -100 41 -38 16 -88 36 -110 46 -22 10 -85 36 -140 59 -343 143 -695
325 -880 456 -180 128 -321 275 -399 418 -15 27 -41 90 -58 140 -28 82 -31
103 -32 221 -1 155 5 197 40 301 66 197 200 386 373 524 24 19 48 40 55 45 20
18 170 112 236 148 133 73 449 185 570 203 19 3 43 7 52 10 23 7 55 13 103 19
22 3 57 8 78 11 164 25 386 32 605 20 68 -4 131 -9 140 -11 9 -1 44 -6 77 -9
33 -4 89 -12 125 -17 36 -6 74 -12 85 -14 24 -3 118 -18 125 -20 3 -1 23 -5
45 -9 22 -5 110 -25 195 -46 820 -203 1517 -596 1925 -1085 89 -106 202 -266
218 -309 4 -10 11 -16 16 -14 5 2 74 66 154 143 79 77 238 230 352 340 114
110 233 225 264 255 32 30 155 150 275 265 310 298 327 314 592 570 131 127
255 246 276 265 20 19 128 123 240 231 111 109 235 228 274 265 116 112 470
453 591 570 l112 109 -20 50 c-44 104 -53 124 -123 265 -40 80 -94 183 -121
230 -42 75 -240 380 -272 420 -6 8 -49 62 -94 120 -413 525 -942 981 -1564
1347 -296 174 -666 356 -960 470 -248 96 -278 107 -465 168 -124 39 -404 123
-440 130 -8 2 -60 15 -115 29 -55 13 -111 27 -125 30 -27 5 -110 22 -175 37
-87 19 -132 27 -175 34 -19 3 -66 12 -105 20 -38 7 -90 16 -115 20 -25 3 -58
8 -75 11 -16 2 -48 6 -70 9 -22 3 -49 7 -60 9 -11 2 -42 7 -70 10 -27 3 -68 9
-90 12 -22 2 -62 7 -90 9 -27 2 -75 6 -105 10 -98 10 -153 14 -245 21 -49 4
-112 8 -140 10 -65 5 -852 13 -857 9z"/>
<path d="M12845 24092 c6 -5 48 -37 95 -72 47 -35 134 -104 195 -154 199 -165
277 -238 566 -526 351 -351 627 -656 899 -995 36 -44 69 -85 75 -92 5 -6 42
-52 80 -103 39 -50 91 -119 117 -153 27 -34 51 -66 56 -72 69 -88 305 -432
414 -605 125 -199 318 -571 318 -614 0 -6 -62 -71 -137 -144 -133 -129 -603
-588 -1036 -1012 -115 -113 -253 -248 -307 -300 -53 -52 -252 -246 -441 -431
-189 -185 -387 -379 -441 -430 -53 -52 -228 -223 -390 -381 l-293 -287 0
-1122 0 -1122 95 -58 c52 -32 115 -70 140 -85 52 -31 542 -358 613 -409 222
-159 686 -516 707 -545 3 -4 43 -39 90 -80 190 -162 517 -477 650 -626 25 -28
75 -84 112 -125 212 -235 515 -643 663 -894 20 -33 41 -69 48 -80 82 -132 235
-429 307 -595 139 -319 271 -716 329 -985 39 -183 61 -285 65 -315 3 -19 8
-48 11 -65 12 -64 24 -142 30 -190 3 -27 8 -63 10 -80 9 -59 14 -111 21 -195
3 -47 8 -96 10 -110 22 -126 21 -806 0 -975 -2 -16 -7 -61 -11 -100 -3 -38 -8
-81 -10 -95 -2 -14 -7 -45 -10 -70 -3 -25 -8 -58 -11 -75 -3 -16 -7 -43 -10
-60 -2 -16 -7 -41 -9 -55 -3 -14 -7 -38 -9 -55 -3 -16 -11 -62 -20 -100 -8
-39 -17 -83 -20 -98 -2 -15 -7 -35 -10 -45 -3 -9 -7 -30 -10 -45 -3 -15 -12
-51 -20 -80 -8 -29 -17 -63 -20 -77 -9 -51 -97 -340 -146 -485 -199 -578 -468
-1136 -819 -1693 -53 -84 -101 -161 -106 -170 -18 -30 -109 -164 -171 -250
-32 -46 -66 -94 -74 -105 -45 -65 -234 -315 -293 -387 -77 -95 -208 -252 -232
-280 -120 -134 -238 -264 -290 -319 -76 -80 -369 -372 -409 -408 -17 -15 -58
-52 -91 -83 -279 -255 -611 -517 -921 -725 l-157 -105 4019 3 c2210 2 4046 6
4079 10 33 3 94 9 135 12 89 6 172 14 220 20 74 9 117 15 165 20 28 3 59 7 70
9 11 2 43 7 70 10 88 12 279 45 406 72 68 14 134 27 147 30 13 3 60 14 105 25
45 11 93 22 106 25 14 3 28 7 31 9 4 2 20 7 36 9 16 3 61 15 99 26 39 12 77
23 85 25 53 12 448 142 472 155 10 6 22 10 27 10 5 0 26 8 47 17 22 9 44 18
49 19 77 18 599 258 793 365 464 256 827 507 1212 838 127 108 461 435 560
546 249 281 418 498 597 770 36 55 74 112 84 127 21 30 23 34 143 242 144 251
311 603 408 861 53 143 136 387 153 455 3 8 20 71 38 140 56 203 96 388 132
605 14 83 33 221 39 290 4 33 9 80 11 105 12 105 27 401 28 545 0 181 -21 557
-38 675 -2 14 -7 52 -11 85 -3 33 -8 69 -10 80 -3 11 -7 38 -9 60 -7 56 -23
147 -41 235 -9 41 -18 86 -20 99 -3 13 -12 51 -20 85 -9 34 -19 77 -23 96 -38
165 -143 496 -224 700 -184 467 -435 913 -735 1313 -59 78 -116 153 -128 167
-12 14 -63 75 -115 135 -105 124 -392 415 -516 523 -605 527 -1287 896 -1973
1067 -143 36 -301 67 -410 81 -19 2 -48 6 -65 8 -50 7 -167 19 -220 21 -97 5
-99 7 -30 22 105 22 179 48 300 108 100 48 278 160 337 210 13 11 37 31 53 43
17 13 63 54 104 90 402 361 757 887 989 1467 77 192 164 460 197 602 2 10 11
46 19 80 9 34 18 77 21 95 4 18 10 52 16 76 5 23 12 59 14 80 3 20 8 48 11 62
3 14 8 41 10 60 2 19 6 49 9 65 2 17 7 53 10 80 3 28 8 64 10 80 26 194 26
879 1 956 -3 8 -7 46 -10 84 -3 39 -10 93 -15 122 -6 29 -13 74 -17 100 -3 26
-12 80 -21 118 -8 39 -16 78 -18 89 -92 437 -298 963 -537 1375 -28 47 -59
102 -70 120 -20 36 -166 258 -180 276 -5 6 -43 57 -85 115 -66 91 -186 245
-203 260 -3 3 -18 21 -34 40 -162 198 -511 541 -734 722 -42 34 -79 65 -82 68
-10 11 -246 187 -295 220 -27 19 -52 36 -55 40 -6 7 -190 126 -305 197 -468
289 -1055 552 -1608 719 -142 43 -386 110 -432 118 -11 2 -38 9 -60 15 -22 6
-58 13 -80 17 -22 3 -43 8 -46 10 -3 2 -21 6 -40 9 -19 3 -77 14 -129 25 -103
21 -195 37 -250 44 -19 3 -51 7 -70 10 -33 5 -160 22 -225 31 -16 2 -61 7
-100 10 -38 4 -81 8 -95 11 -14 2 -68 6 -120 10 -52 3 -115 8 -140 12 -74 9
-5825 13 -5815 4z m5336 -4846 c64 -4 127 -9 140 -11 13 -2 51 -6 84 -10 32
-4 66 -8 75 -10 8 -2 56 -10 105 -19 280 -52 564 -161 781 -301 365 -236 598
-574 670 -975 19 -105 27 -392 14 -475 -4 -27 -11 -72 -14 -100 -16 -119 -77
-305 -141 -429 -124 -242 -297 -430 -545 -592 -53 -35 -107 -68 -121 -74 -13
-5 -31 -14 -39 -20 -27 -17 -170 -80 -183 -80 -7 0 -17 -4 -22 -9 -6 -5 -44
-20 -85 -34 -166 -55 -317 -91 -470 -112 -25 -4 -58 -8 -75 -11 -16 -2 -52 -7
-80 -11 -27 -3 -413 -8 -857 -10 l-808 -4 0 1648 0 1648 727 -1 c401 -1 780
-4 844 -8z m29 -7101 c712 -3 1338 -8 1390 -10 197 -8 392 -30 550 -62 41 -8
86 -16 100 -18 53 -9 283 -76 376 -110 664 -247 1081 -726 1197 -1375 24 -134
30 -194 32 -365 4 -341 -53 -611 -186 -879 -111 -222 -278 -432 -464 -581 -28
-22 -52 -42 -55 -45 -13 -14 -163 -112 -230 -151 -237 -139 -543 -251 -845
-310 -60 -11 -117 -22 -125 -24 -8 -1 -55 -8 -105 -14 -49 -6 -110 -14 -135
-18 -25 -3 -732 -8 -1572 -10 l-1528 -4 0 1989 c0 1094 2 1991 4 1993 2 2 71
3 153 2 81 -1 731 -4 1443 -8z"/>
</g>
</svg>
