<svg id="Layer_1" data-name="Layer 1" xmlns="http://www.w3.org/2000/svg" viewBox="0 0 2254.2705 591.1064"><defs><style>.cls-1{fill:#e5e5e5;}</style></defs><path class="cls-1" d="M814.3037,550.479H736.3979V795.0947H649.8135V550.479H571.7061V469.748H814.3037Z" transform="translate(-144.0098 -374.7979)"/><path class="cls-1" d="M1962.5654,940.8213,1958.1641,963h-82.7315l27.5479-141.876h22.9716l-23.3242,119.6973Z" transform="translate(-144.0098 -374.7979)"/><path class="cls-1" d="M2021.6016,821.124h22.8838L2016.9365,963h-22.8828Z" transform="translate(-144.0098 -374.7979)"/><path class="cls-1" d="M2205.1768,821.124l-90.2129,144.78H2112.06l-33.7969-144.78h23.4111l20.419,94.6133,56.5039-94.6133Z" transform="translate(-144.0098 -374.7979)"/><path class="cls-1" d="M2257.6123,843.0391l-7.041,36.3486H2300.21l-4.3125,22.18h-49.64l-7.6572,39.2539h57.9131L2292.2012,963h-80.7959l27.5478-141.876h80.7959l-4.2246,21.9151Z" transform="translate(-144.0098 -374.7979)"/><path id="star" class="cls-1" d="M1293.2257,578.9146,1161.8869,691.42l40.1262,168.2178-147.585-90.1446L906.8432,859.6381,946.9694,691.42,815.6307,578.9146l172.3841-13.82,66.4133-159.6766,66.4133,159.6766Z" transform="translate(-144.0098 -374.7979)"/><path class="cls-1" d="M1502.8164,794.75l-86.751-140.895V794.75H1329.918l-.4024-324.4614h123.1826c70.045,0,120.1641,47.3008,120.1641,105.47,0,40.457-24.3555,74.272-56.1572,88.7637L1603.6572,794.75Zm-87.1533-181.956,35.2236.2011c18.3164.2017,35.0225-12.68,35.0225-32.6069,0-20.1279-16.9072-32.6069-35.0225-32.6069h-35.2236Z" transform="translate(-144.0098 -374.7979)"/><path class="cls-1" d="M1881.2109,695.72c0,51.3262-43.0732,99.0293-108.0859,99.0293h-138.48V470.2881h106.6778c58.7734,0,101.8476,39.6518,101.8476,84.3359,0,33.4121-22.1406,57.3643-35.4258,57.3643C1842.3643,611.9883,1881.2109,646.81,1881.2109,695.72ZM1738.7061,545.1641h-21.1348v50.9233h20.5312c18.7188,0,32.8077-9.2588,32.8077-25.9648C1770.91,554.4229,1757.2236,545.1641,1738.7061,545.1641Zm59.98,140.291c0-18.92-13.6865-30.3931-38.041-30.3931l-43.0742-.2012v61.5913h42.47C1779.7666,716.4521,1798.6865,706.7905,1798.6865,685.4551Z" transform="translate(-144.0098 -374.7979)"/><path class="cls-1" d="M2002.9775,550.397v45.2881h103.0547v71.8564H2002.9775v46.4951h125.1954V794.75h-210.337V470.2881h210.337V550.397Z" transform="translate(-144.0098 -374.7979)"/><path class="cls-1" d="M2398.28,550.8h-77.6934V794.75h-86.3486V550.8h-77.8945V470.2881H2398.28Z" transform="translate(-144.0098 -374.7979)"/><path class="cls-1" d="M144.01,858.0752l91.833-90.0606c23.7563,35.1026,68.0771,56.376,115.9438,56.376,32.2661,0,63.8223-11.7,63.8223-35.102,0-29.4292-58.5034-55.3125-114.5254-80.1324-72.332-31.2021-134.3814-78.7143-134.3814-164.8745,0-98.9243,93.9605-169.4838,202.4585-169.4838,87.2237,0,155.3008,41.13,177.6387,97.5063l-87.5781,84.3872c-17.0195-30.1382-60.9858-43.2568-88.2876-43.2568-31.2022,0-53.54,15.955-53.54,35.4565,0,26.2383,40.4209,34.7476,102.1157,60.6314C508.86,647.1064,568.0737,701.71,568.0737,786.0977c0,108.8525-101.4067,176.5752-215.9326,176.5752C258.1807,962.6729,172.73,921.1885,144.01,858.0752Z" transform="translate(-144.0098 -374.7979)"/><g id="left_side" data-name="left side"><polygon class="cls-1" points="1077.085 525.202 944.471 444.202 876.365 444.202 743.752 525.202 1077.085 525.202"/><polygon class="cls-1" points="1367.99 525.202 1367.99 444.202 1081.696 444.202 1101.017 525.202 1367.99 525.202"/><path class="cls-1" d="M863.829,900l19.3215-81H601.465a171.8539,171.8539,0,0,1-34.094,81Z" transform="translate(-144.0098 -374.7979)"/><path class="cls-1" d="M542.3066,927a209.07,209.07,0,0,1-57.0291,36H1512V927Z" transform="translate(-144.0098 -374.7979)"/></g><g id="right_side" data-name="right side"><polygon class="cls-1" points="1703.319 525.202 1719.187 444.202 1259.99 444.202 1259.99 525.202 1703.319 525.202"/><polygon class="cls-1" points="1259.99 552.202 1259.99 588.202 1690.977 588.202 1698.03 552.202 1259.99 552.202"/></g></svg>